<?xml version="1.0" standalone="no"?>
<!DOCTYPE svg PUBLIC "-//W3C//DTD SVG 20010904//EN"
 "http://www.w3.org/TR/2001/REC-SVG-20010904/DTD/svg10.dtd">
<svg version="1.0" xmlns="http://www.w3.org/2000/svg"
 width="200.000000pt" height="200.000000pt" viewBox="0 0 200.000000 200.000000"
 preserveAspectRatio="xMidYMid meet">

<g transform="translate(0.000000,200.000000) scale(0.100000,-0.100000)"
fill="#000000" stroke="none">
<path d="M987 1878 c-33 -85 -44 -141 -57 -283 l-11 -120 -44 -45 -44 -45 -19
-144 c-19 -144 -19 -145 -55 -175 -19 -17 -126 -114 -236 -216 l-201 -184 0
-57 c0 -54 1 -57 47 -96 36 -29 82 -51 187 -89 76 -27 141 -55 144 -62 3 -8
-26 -44 -67 -86 l-72 -73 3 -63 3 -64 75 -22 c41 -13 80 -23 86 -23 5 -1 45
31 87 70 66 61 77 75 77 104 0 54 8 66 36 53 17 -8 31 -8 48 0 25 11 25 10 28
-41 2 -38 7 -52 18 -52 11 0 16 14 18 52 3 51 3 52 28 41 17 -8 31 -8 48 0 28
13 36 1 36 -53 0 -29 11 -43 77 -104 42 -39 82 -71 87 -70 6 0 45 10 86 23
l75 22 2 64 3 65 -81 69 c-45 39 -79 75 -77 83 2 10 60 35 156 68 118 42 162
62 197 92 42 36 44 40 45 93 l0 55 -197 182 c-109 99 -216 198 -239 219 l-41
39 -17 140 -18 140 -44 45 -43 45 -11 125 c-6 69 -16 143 -21 165 -16 62 -60
175 -69 175 -4 0 -19 -28 -33 -62z m58 -218 c15 -17 19 -38 19 -120 1 -90 -1
-101 -21 -122 l-23 -22 -22 22 c-21 21 -23 32 -22 122 0 82 4 103 19 120 10
11 21 20 25 20 4 0 15 -9 25 -20z"/>
</g>
</svg>
