<?xml version="1.0" standalone="no"?>
<!DOCTYPE svg PUBLIC "-//W3C//DTD SVG 20010904//EN"
 "http://www.w3.org/TR/2001/REC-SVG-20010904/DTD/svg10.dtd">
<svg version="1.0" xmlns="http://www.w3.org/2000/svg"
 width="300.000000pt" height="200.000000pt" viewBox="0 0 300.000000 200.000000"
 preserveAspectRatio="xMidYMid meet">
<metadata>
Created by potrace 1.10, written by Peter Selinger 2001-2011
</metadata>
<g transform="translate(0.000000,200.000000) scale(0.100000,-0.100000)"
fill="#000000" stroke="none">
<path d="M1999 1493 c-1 -93 -1 -192 0 -220 1 -29 -2 -53 -6 -53 -4 0 -23 9
-41 20 -18 11 -41 20 -52 20 -22 0 -25 12 -10 40 21 39 -22 80 -61 59 -19 -9
-21 -17 -15 -55 4 -35 3 -44 -9 -44 -11 0 -15 12 -15 45 l0 45 -95 0 -95 0 0
-42 0 -43 -47 1 c-47 2 -48 3 -47 33 2 28 -1 31 -27 31 -22 0 -29 5 -29 20 0
11 -4 20 -10 20 -5 0 -10 8 -10 18 0 15 -10 17 -72 15 -58 -1 -74 -4 -76 -17
-2 -9 -14 -16 -28 -16 -15 0 -24 -6 -24 -15 0 -8 -9 -15 -20 -15 -29 0 -28
-58 1 -68 12 -5 -9 -8 -54 -7 -48 0 -80 -5 -90 -13 -9 -8 -42 -22 -72 -31 -31
-10 -56 -21 -57 -24 0 -4 3 -57 7 -117 l7 -110 39 0 c22 0 39 -5 39 -11 0 -8
-15 -9 -52 -3 -127 19 -150 13 -162 -48 -3 -14 -20 -40 -37 -57 l-31 -31 4
-156 c2 -117 6 -157 17 -163 11 -7 11 -9 0 -14 -12 -4 -11 -7 1 -16 13 -10 13
-12 0 -21 -12 -8 -13 -11 -1 -19 11 -7 11 -9 0 -14 -12 -4 -11 -7 1 -16 12 -8
7 -11 -22 -11 -21 0 -38 -4 -38 -10 0 -7 295 -10 865 -10 570 0 865 3 865 10
0 6 -44 10 -112 10 -78 0 -108 3 -98 10 12 8 13 11 1 19 -11 7 -11 9 0 14 12
4 11 7 -1 16 -13 10 -13 12 0 21 12 8 13 11 1 19 -11 7 -11 9 0 13 11 4 15 40
17 161 l4 157 -31 31 c-17 17 -34 43 -37 57 -10 46 -13 52 -30 59 -10 3 -43 2
-76 -3 -32 -6 -58 -6 -58 -2 0 4 6 8 14 8 11 0 16 25 21 110 4 60 8 113 9 117
0 5 -9 9 -22 11 -22 3 -23 8 -21 65 5 144 -1 387 -11 387 -6 0 -10 -63 -11
-167z m-594 -113 c4 -6 -15 -10 -50 -10 -35 0 -54 4 -50 10 3 6 26 10 50 10
24 0 47 -4 50 -10z m16 -36 c5 -3 9 -22 9 -42 l0 -37 -64 0 c-58 0 -63 2 -50
16 19 21 18 38 -3 62 -18 20 -17 20 41 13 32 -3 63 -9 67 -12z m449 -14 c0 -5
0 -13 0 -17 0 -4 -9 -7 -20 -7 -11 0 -20 3 -20 7 0 4 0 12 0 17 0 6 9 10 20
10 11 0 20 -4 20 -10z m-560 -20 c0 -13 -7 -20 -20 -20 -13 0 -20 7 -20 20 0
13 7 20 20 20 13 0 20 -7 20 -20z m458 -14 c2 -19 0 -26 -8 -21 -6 4 -17 1
-25 -5 -13 -11 -15 -7 -15 24 0 33 3 37 23 34 16 -2 23 -11 25 -32z m-284 -2
c7 -19 6 -21 -14 -25 -16 -4 -20 1 -20 26 0 20 26 19 34 -1z m226 1 c0 -11
-12 -15 -45 -15 -33 0 -45 4 -45 15 0 11 12 15 45 15 33 0 45 -4 45 -15z
m-310 -59 c0 -11 -10 -14 -50 -11 l-50 4 0 -36 0 -36 50 5 50 5 0 -93 0 -94
-145 0 c-109 0 -145 3 -145 13 0 8 -4 7 -10 -3 -9 -13 -11 -13 -20 0 -9 13
-11 13 -20 0 -9 -13 -11 -13 -21 0 -8 11 -12 12 -16 3 -2 -7 -11 -13 -19 -13
-13 0 -13 3 0 23 24 37 42 136 28 157 -9 15 -7 23 9 44 28 35 61 42 222 45
116 2 137 0 137 -13z m182 -127 l3 -129 -87 0 c-72 0 -88 3 -88 15 0 12 7 14
26 9 28 -7 46 9 37 33 -6 17 -50 17 -56 1 -2 -7 -4 34 -5 92 0 58 1 107 3 110
2 3 39 4 83 2 l81 -3 3 -130z m332 127 c45 -19 68 -52 54 -76 -13 -21 5 -120
28 -157 13 -21 13 -23 -6 -23 -12 0 -18 5 -15 10 3 6 2 10 -4 10 -5 0 -12 -6
-14 -12 -4 -10 -8 -9 -16 2 -10 13 -12 13 -21 0 -9 -13 -11 -13 -20 0 -6 10
-10 11 -10 3 0 -10 -36 -13 -145 -13 l-145 0 0 135 0 135 140 0 c98 0 151 -4
174 -14z m-514 -41 c0 -11 -12 -15 -45 -15 -33 0 -45 4 -45 15 0 11 12 15 45
15 33 0 45 -4 45 -15z m-395 -12 c-3 -10 -11 -40 -17 -66 -5 -27 -11 -47 -13
-45 -1 2 -5 25 -7 51 -4 34 -1 52 9 62 20 20 37 19 28 -2z m1018 4 c15 -10 16
-21 9 -67 l-8 -55 -12 50 c-7 28 -15 58 -18 68 -6 20 5 22 29 4z m-1010 -107
c-9 -36 -20 -69 -26 -75 -6 -7 -8 -2 -4 15 4 14 12 51 18 83 7 32 15 55 20 50
4 -4 1 -37 -8 -73z m1007 -74 c0 -6 -3 -6 -9 0 -13 14 -41 137 -33 148 5 9 40
-116 42 -148z m82 -76 c20 -6 49 -25 64 -43 l27 -32 -121 -5 c-132 -5 -155
-15 -168 -66 -5 -21 -1 -31 22 -51 20 -16 25 -26 16 -30 -10 -4 -10 -8 -1 -20
10 -11 10 -16 0 -23 -9 -5 -10 -9 -2 -14 29 -18 -11 -26 -137 -26 -121 0 -140
3 -162 20 -22 17 -41 20 -140 20 -99 0 -118 -3 -140 -20 -22 -17 -41 -20 -162
-20 -126 0 -166 8 -137 26 8 5 7 9 -2 14 -10 7 -10 12 0 23 9 12 9 16 -1 20
-9 4 -4 14 16 30 31 27 31 52 2 92 -13 18 -29 21 -142 25 l-127 5 27 32 c15
18 42 37 59 42 45 13 1162 14 1209 1z m-1038 -122 c32 -46 26 -48 -139 -48
l-155 0 0 23 c0 42 16 47 151 47 121 0 129 -1 143 -22z m1154 10 c7 -7 12 -22
12 -35 l0 -23 -155 0 c-165 0 -171 2 -139 48 14 21 22 22 143 22 85 0 131 -4
139 -12z m-102 -90 c5 -7 3 -8 -6 -3 -9 5 -11 4 -6 -3 4 -7 27 -12 50 -12 35
0 45 -4 49 -20 5 -18 0 -20 -46 -22 l-52 -1 49 -6 c67 -8 73 -30 9 -33 l-48
-1 43 -4 c23 -2 42 -8 42 -14 0 -5 1 -12 3 -16 1 -5 -18 -11 -43 -14 l-45 -6
48 -1 c34 -2 47 -6 47 -17 0 -11 -13 -15 -52 -17 l-53 -2 48 -3 c32 -3 47 -9
47 -18 0 -9 -15 -15 -47 -17 -51 -3 -49 -1 -52 -65 -1 -24 -34 -33 -46 -13 -3
6 -26 10 -51 10 -59 0 -57 20 4 22 l47 1 -44 6 c-63 9 -66 31 -4 33 l48 2 -47
3 c-27 2 -48 8 -48 12 0 5 -12 6 -26 3 -25 -4 -25 -3 -18 34 8 49 24 71 35 52
7 -10 9 -9 9 5 0 13 10 17 48 19 l47 1 -42 4 c-55 5 -59 30 -5 36 l37 4 -42 1
c-36 2 -43 5 -43 22 0 16 7 20 33 20 17 0 50 7 72 15 22 8 41 14 42 15 1 0 5
-5 9 -12z m-1118 -14 c32 -5 42 -10 42 -25 0 -15 -8 -19 -42 -20 -43 -2 -43
-2 -9 -8 49 -9 51 -29 4 -34 l-38 -4 43 -1 c28 -1 42 -6 42 -16 0 -8 8 -13 18
-12 12 1 18 -8 20 -29 2 -16 9 -36 15 -44 10 -12 6 -13 -21 -9 -17 2 -32 1
-32 -4 0 -4 -21 -9 -47 -10 l-48 -2 48 -3 c61 -5 58 -26 -4 -33 -36 -4 -45 -9
-47 -27 -2 -15 -10 -23 -22 -23 -12 0 -20 8 -22 23 -3 19 -10 22 -50 25 -34 2
-48 7 -48 18 0 10 14 15 48 16 l47 2 -47 3 c-34 3 -48 8 -48 19 0 10 13 14 43
15 24 1 31 3 17 6 -85 13 -97 32 -22 35 l47 1 -42 4 c-34 3 -43 8 -43 23 0 15
9 20 48 23 l47 3 -53 2 c-69 3 -66 25 4 33 l49 6 -47 1 c-41 2 -48 5 -48 22 0
17 7 20 46 20 31 0 43 4 38 11 -5 8 5 10 32 5 22 -3 58 -8 82 -12z m627 -84
c4 -6 -40 -10 -125 -10 -85 0 -129 4 -125 10 4 6 57 10 125 10 68 0 121 -4
125 -10z m285 -54 c0 -46 -23 -56 -126 -56 -85 0 -99 3 -132 25 -34 23 -45 25
-152 25 -108 0 -118 -2 -150 -25 -31 -23 -43 -25 -131 -25 -106 0 -129 10
-129 56 l0 24 410 0 410 0 0 -24z m-277 -35 c9 -7 14 -17 11 -22 -7 -13 -281
-11 -289 1 -4 6 9 17 27 25 44 19 228 16 251 -4z m567 -66 c0 -11 -12 -15 -45
-15 -33 0 -45 4 -45 15 0 11 12 15 45 15 33 0 45 -4 45 -15z m-251 -11 c3 -4
0 -9 -7 -11 -10 -4 -10 -8 -1 -19 9 -11 9 -14 -1 -14 -10 0 -10 -3 0 -15 11
-13 -39 -15 -440 -15 -401 0 -451 2 -440 15 10 12 10 15 0 15 -10 0 -10 3 -1
14 9 11 9 15 -1 19 -43 17 55 22 447 20 241 -1 440 -5 444 -9z m-1059 -24 c0
-5 -20 -10 -45 -10 -25 0 -45 5 -45 10 0 6 20 10 45 10 25 0 45 -4 45 -10z
m150 1 c0 -5 -20 -11 -45 -13 -31 -2 -45 1 -45 9 0 9 16 13 45 13 25 0 45 -4
45 -9z m1160 -1 c0 -5 -20 -10 -45 -10 -25 0 -45 5 -45 10 0 6 20 10 45 10 25
0 45 -4 45 -10z"/>
<path d="M1343 1324 c-8 -21 13 -42 28 -27 13 13 5 43 -11 43 -6 0 -13 -7 -17
-16z"/>
<path d="M1245 1188 c-42 -173 -47 -203 -29 -185 4 3 15 43 25 89 11 46 22 91
25 101 3 9 1 17 -5 17 -6 0 -13 -10 -16 -22z"/>
<path d="M1265 1020 c-4 -6 15 -10 49 -10 31 0 56 5 56 10 0 6 -22 10 -49 10
-28 0 -53 -4 -56 -10z"/>
<path d="M1457 1152 c-23 -25 -21 -58 3 -82 39 -39 100 -14 100 42 0 51 -69
78 -103 40z m75 -9 c22 -20 23 -41 1 -65 -20 -22 -41 -23 -65 -1 -22 20 -23
41 -1 65 20 22 41 23 65 1z"/>
<path d="M1734 1193 c3 -10 13 -49 21 -88 21 -94 25 -105 35 -105 4 0 -1 39
-11 88 -25 113 -28 122 -40 122 -6 0 -8 -8 -5 -17z"/>
<path d="M1635 1020 c-4 -6 15 -10 49 -10 31 0 56 5 56 10 0 6 -22 10 -49 10
-28 0 -53 -4 -56 -10z"/>
<path d="M913 908 c-2 -5 40 -8 93 -8 54 0 95 3 92 6 -9 8 -179 10 -185 2z"/>
<path d="M1163 893 c-13 -2 -23 -10 -23 -18 0 -18 33 -25 120 -25 87 0 120 7
120 25 0 7 -10 15 -22 19 -25 6 -160 6 -195 -1z m145 -20 c-27 -2 -69 -2 -95
0 -27 2 -5 3 47 3 52 0 74 -1 48 -3z"/>
<path d="M1710 854 c0 -35 1 -35 38 -32 34 3 37 6 40 36 3 31 2 32 -37 32 -40
0 -41 -1 -41 -36z m58 -2 c3 -17 -2 -22 -17 -22 -16 0 -21 6 -21 26 0 33 33
30 38 -4z"/>
<path d="M1545 820 c3 -5 37 -10 76 -10 39 0 69 4 69 10 0 6 -32 10 -76 10
-47 0 -73 -4 -69 -10z"/>
<path d="M1136 739 c-4 -23 -4 -44 -1 -47 3 -3 5 0 5 6 0 8 19 12 50 12 29 0
50 -5 50 -11 0 -5 4 -8 8 -5 5 3 6 22 3 43 -6 38 -7 38 -57 41 l-51 3 -7 -42z"/>
<path d="M1756 772 c-12 -19 -18 -82 -7 -82 6 0 11 5 11 10 0 6 23 10 50 10
31 0 50 -4 50 -12 0 -6 2 -9 5 -6 3 3 3 24 -1 47 l-7 41 -48 0 c-26 0 -50 -3
-53 -8z"/>
<path d="M1276 742 c-2 -4 -7 -24 -11 -45 l-7 -37 41 0 c40 0 41 1 41 33 0 18
-5 38 -12 45 -13 13 -44 16 -52 4z m44 -27 c0 -8 -9 -15 -20 -15 -11 0 -20 7
-20 15 0 8 9 15 20 15 11 0 20 -7 20 -15z"/>
<path d="M944 590 c1 -11 14 -15 44 -16 l42 -1 -39 4 c-22 2 -42 9 -44 16 -2
7 -3 5 -3 -3z"/>
<path d="M560 380 c0 -5 25 -10 55 -10 30 0 55 5 55 10 0 6 -25 10 -55 10 -30
0 -55 -4 -55 -10z"/>
</g>
</svg>
